<mxfile host="app.diagrams.net" agent="Mozilla/5.0 (Windows NT 10.0; Win64; x64) AppleWebKit/537.36 (KHTML, like Gecko) Chrome/135.0.0.0 Safari/537.36" version="26.2.13">
  <diagram name="Page-1" id="6BX77sCiUBTxYh9to-66">
    <mxGraphModel grid="1" page="1" gridSize="10" guides="1" tooltips="1" connect="1" arrows="1" fold="1" pageScale="1" pageWidth="850" pageHeight="1100" math="0" shadow="0">
      <root>
        <mxCell id="0" />
        <mxCell id="1" parent="0" />
        <mxCell id="480Q1s_5HdtnBdWm07x5-1" value="Danh mục sách" style="swimlane;whiteSpace=wrap;html=1;" vertex="1" parent="1">
          <mxGeometry x="320" y="60" width="460" height="550" as="geometry" />
        </mxCell>
        <mxCell id="480Q1s_5HdtnBdWm07x5-3" value="Lọc danh sách sách" style="ellipse;whiteSpace=wrap;html=1;" vertex="1" parent="480Q1s_5HdtnBdWm07x5-1">
          <mxGeometry x="30" y="60" width="120" height="60" as="geometry" />
        </mxCell>
        <mxCell id="480Q1s_5HdtnBdWm07x5-4" value="Xem chi tiết sách" style="ellipse;whiteSpace=wrap;html=1;" vertex="1" parent="480Q1s_5HdtnBdWm07x5-1">
          <mxGeometry x="30" y="160" width="120" height="60" as="geometry" />
        </mxCell>
        <mxCell id="480Q1s_5HdtnBdWm07x5-10" value="Quản lý sách" style="ellipse;whiteSpace=wrap;html=1;" vertex="1" parent="480Q1s_5HdtnBdWm07x5-1">
          <mxGeometry x="30" y="300" width="120" height="60" as="geometry" />
        </mxCell>
        <mxCell id="480Q1s_5HdtnBdWm07x5-11" value="Thêm sách" style="ellipse;whiteSpace=wrap;html=1;" vertex="1" parent="480Q1s_5HdtnBdWm07x5-1">
          <mxGeometry x="240" y="220" width="120" height="60" as="geometry" />
        </mxCell>
        <mxCell id="480Q1s_5HdtnBdWm07x5-12" value="Cập nhật sách" style="ellipse;whiteSpace=wrap;html=1;" vertex="1" parent="480Q1s_5HdtnBdWm07x5-1">
          <mxGeometry x="240" y="300" width="120" height="60" as="geometry" />
        </mxCell>
        <mxCell id="480Q1s_5HdtnBdWm07x5-13" value="Xoá sách" style="ellipse;whiteSpace=wrap;html=1;" vertex="1" parent="480Q1s_5HdtnBdWm07x5-1">
          <mxGeometry x="240" y="380" width="120" height="60" as="geometry" />
        </mxCell>
        <mxCell id="480Q1s_5HdtnBdWm07x5-14" value="Gán sách vào kệ hoặc khu vực cụ thể" style="ellipse;whiteSpace=wrap;html=1;" vertex="1" parent="480Q1s_5HdtnBdWm07x5-1">
          <mxGeometry x="240" y="460" width="120" height="60" as="geometry" />
        </mxCell>
        <mxCell id="480Q1s_5HdtnBdWm07x5-15" value="" style="endArrow=classic;html=1;rounded=0;entryX=0;entryY=0.5;entryDx=0;entryDy=0;exitX=0.972;exitY=0.289;exitDx=0;exitDy=0;exitPerimeter=0;dashed=1;" edge="1" parent="480Q1s_5HdtnBdWm07x5-1" source="480Q1s_5HdtnBdWm07x5-10" target="480Q1s_5HdtnBdWm07x5-11">
          <mxGeometry width="50" height="50" relative="1" as="geometry">
            <mxPoint x="90" y="400" as="sourcePoint" />
            <mxPoint x="140" y="350" as="targetPoint" />
          </mxGeometry>
        </mxCell>
        <mxCell id="480Q1s_5HdtnBdWm07x5-17" value="" style="endArrow=classic;html=1;rounded=0;entryX=0.028;entryY=0.608;entryDx=0;entryDy=0;exitX=1;exitY=0.5;exitDx=0;exitDy=0;dashed=1;entryPerimeter=0;" edge="1" parent="480Q1s_5HdtnBdWm07x5-1" source="480Q1s_5HdtnBdWm07x5-10" target="480Q1s_5HdtnBdWm07x5-12">
          <mxGeometry width="50" height="50" relative="1" as="geometry">
            <mxPoint x="157" y="327" as="sourcePoint" />
            <mxPoint x="250" y="260" as="targetPoint" />
          </mxGeometry>
        </mxCell>
        <mxCell id="480Q1s_5HdtnBdWm07x5-18" value="" style="endArrow=classic;html=1;rounded=0;entryX=0;entryY=0.5;entryDx=0;entryDy=0;exitX=0.931;exitY=0.761;exitDx=0;exitDy=0;exitPerimeter=0;dashed=1;" edge="1" parent="480Q1s_5HdtnBdWm07x5-1" source="480Q1s_5HdtnBdWm07x5-10" target="480Q1s_5HdtnBdWm07x5-13">
          <mxGeometry width="50" height="50" relative="1" as="geometry">
            <mxPoint x="167" y="337" as="sourcePoint" />
            <mxPoint x="260" y="270" as="targetPoint" />
          </mxGeometry>
        </mxCell>
        <mxCell id="480Q1s_5HdtnBdWm07x5-19" value="" style="endArrow=classic;html=1;rounded=0;entryX=0;entryY=0.5;entryDx=0;entryDy=0;dashed=1;" edge="1" parent="480Q1s_5HdtnBdWm07x5-1" source="480Q1s_5HdtnBdWm07x5-10" target="480Q1s_5HdtnBdWm07x5-14">
          <mxGeometry width="50" height="50" relative="1" as="geometry">
            <mxPoint x="177" y="347" as="sourcePoint" />
            <mxPoint x="270" y="280" as="targetPoint" />
          </mxGeometry>
        </mxCell>
        <mxCell id="480Q1s_5HdtnBdWm07x5-21" value="&amp;lt;&amp;lt;include&amp;gt;&amp;gt;" style="text;html=1;align=center;verticalAlign=middle;resizable=0;points=[];autosize=1;strokeColor=none;fillColor=none;" vertex="1" parent="480Q1s_5HdtnBdWm07x5-1">
          <mxGeometry x="100" y="420" width="90" height="30" as="geometry" />
        </mxCell>
        <mxCell id="480Q1s_5HdtnBdWm07x5-22" value="&amp;lt;&amp;lt;include&amp;gt;&amp;gt;" style="text;html=1;align=center;verticalAlign=middle;resizable=0;points=[];autosize=1;strokeColor=none;fillColor=none;" vertex="1" parent="480Q1s_5HdtnBdWm07x5-1">
          <mxGeometry x="160" y="310" width="90" height="30" as="geometry" />
        </mxCell>
        <mxCell id="480Q1s_5HdtnBdWm07x5-23" value="&amp;lt;&amp;lt;include&amp;gt;&amp;gt;" style="text;html=1;align=center;verticalAlign=middle;resizable=0;points=[];autosize=1;strokeColor=none;fillColor=none;" vertex="1" parent="480Q1s_5HdtnBdWm07x5-1">
          <mxGeometry x="130" y="250" width="90" height="30" as="geometry" />
        </mxCell>
        <mxCell id="480Q1s_5HdtnBdWm07x5-2" value="Người đọc" style="shape=umlActor;verticalLabelPosition=bottom;verticalAlign=top;html=1;outlineConnect=0;" vertex="1" parent="1">
          <mxGeometry x="260" y="150" width="30" height="60" as="geometry" />
        </mxCell>
        <mxCell id="480Q1s_5HdtnBdWm07x5-6" value="" style="endArrow=none;html=1;rounded=0;entryX=0;entryY=0.5;entryDx=0;entryDy=0;" edge="1" parent="1" target="480Q1s_5HdtnBdWm07x5-3">
          <mxGeometry width="50" height="50" relative="1" as="geometry">
            <mxPoint x="300" y="180" as="sourcePoint" />
            <mxPoint x="440" y="220" as="targetPoint" />
          </mxGeometry>
        </mxCell>
        <mxCell id="480Q1s_5HdtnBdWm07x5-7" value="" style="endArrow=none;html=1;rounded=0;entryX=0;entryY=0.5;entryDx=0;entryDy=0;" edge="1" parent="1" target="480Q1s_5HdtnBdWm07x5-4">
          <mxGeometry width="50" height="50" relative="1" as="geometry">
            <mxPoint x="300" y="180" as="sourcePoint" />
            <mxPoint x="370" y="190" as="targetPoint" />
          </mxGeometry>
        </mxCell>
        <mxCell id="480Q1s_5HdtnBdWm07x5-8" value="Thủ thư" style="shape=umlActor;verticalLabelPosition=bottom;verticalAlign=top;html=1;outlineConnect=0;" vertex="1" parent="1">
          <mxGeometry x="260" y="370" width="30" height="60" as="geometry" />
        </mxCell>
        <mxCell id="480Q1s_5HdtnBdWm07x5-20" value="&amp;lt;&amp;lt;include&amp;gt;&amp;gt;" style="text;html=1;align=center;verticalAlign=middle;resizable=0;points=[];autosize=1;strokeColor=none;fillColor=none;" vertex="1" parent="1">
          <mxGeometry x="455" y="438" width="90" height="30" as="geometry" />
        </mxCell>
        <mxCell id="480Q1s_5HdtnBdWm07x5-24" value="" style="endArrow=none;html=1;rounded=0;entryX=0;entryY=0.5;entryDx=0;entryDy=0;" edge="1" parent="1" target="480Q1s_5HdtnBdWm07x5-10">
          <mxGeometry width="50" height="50" relative="1" as="geometry">
            <mxPoint x="300" y="410" as="sourcePoint" />
            <mxPoint x="360" y="260" as="targetPoint" />
          </mxGeometry>
        </mxCell>
        <mxCell id="480Q1s_5HdtnBdWm07x5-25" value="Mượn sách" style="swimlane;whiteSpace=wrap;html=1;" vertex="1" parent="1">
          <mxGeometry x="360" y="680" width="370" height="310" as="geometry" />
        </mxCell>
        <mxCell id="480Q1s_5HdtnBdWm07x5-27" value="Mượn sách" style="ellipse;whiteSpace=wrap;html=1;" vertex="1" parent="480Q1s_5HdtnBdWm07x5-25">
          <mxGeometry x="40" y="40" width="120" height="60" as="geometry" />
        </mxCell>
        <mxCell id="480Q1s_5HdtnBdWm07x5-28" value="Đặt trước sách" style="ellipse;whiteSpace=wrap;html=1;" vertex="1" parent="480Q1s_5HdtnBdWm07x5-25">
          <mxGeometry x="40" y="120" width="120" height="60" as="geometry" />
        </mxCell>
        <mxCell id="480Q1s_5HdtnBdWm07x5-34" value="Gửi mail cho người đọc" style="ellipse;whiteSpace=wrap;html=1;" vertex="1" parent="480Q1s_5HdtnBdWm07x5-25">
          <mxGeometry x="40" y="230" width="120" height="60" as="geometry" />
        </mxCell>
        <mxCell id="6QVX08hzrQzraXywxJCc-2" value="Xem sách đã mượn" style="ellipse;whiteSpace=wrap;html=1;" vertex="1" parent="480Q1s_5HdtnBdWm07x5-25">
          <mxGeometry x="200" y="90" width="120" height="60" as="geometry" />
        </mxCell>
        <mxCell id="6QVX08hzrQzraXywxJCc-3" value="" style="endArrow=classic;html=1;rounded=0;entryX=1;entryY=0.5;entryDx=0;entryDy=0;exitX=0.022;exitY=0.363;exitDx=0;exitDy=0;exitPerimeter=0;dashed=1;" edge="1" parent="480Q1s_5HdtnBdWm07x5-25" source="6QVX08hzrQzraXywxJCc-2" target="480Q1s_5HdtnBdWm07x5-27">
          <mxGeometry width="50" height="50" relative="1" as="geometry">
            <mxPoint x="30" y="270" as="sourcePoint" />
            <mxPoint x="80" y="220" as="targetPoint" />
          </mxGeometry>
        </mxCell>
        <mxCell id="6QVX08hzrQzraXywxJCc-4" value="&amp;lt;&amp;lt;extend&amp;gt;&amp;gt;" style="text;html=1;align=center;verticalAlign=middle;resizable=0;points=[];autosize=1;strokeColor=none;fillColor=none;" vertex="1" parent="480Q1s_5HdtnBdWm07x5-25">
          <mxGeometry x="160" y="70" width="90" height="30" as="geometry" />
        </mxCell>
        <mxCell id="480Q1s_5HdtnBdWm07x5-26" value="Người đọc" style="shape=umlActor;verticalLabelPosition=bottom;verticalAlign=top;html=1;outlineConnect=0;" vertex="1" parent="1">
          <mxGeometry x="280" y="740" width="30" height="60" as="geometry" />
        </mxCell>
        <mxCell id="480Q1s_5HdtnBdWm07x5-29" value="" style="endArrow=none;html=1;rounded=0;entryX=0;entryY=0.5;entryDx=0;entryDy=0;" edge="1" parent="1" target="480Q1s_5HdtnBdWm07x5-28">
          <mxGeometry width="50" height="50" relative="1" as="geometry">
            <mxPoint x="320" y="780" as="sourcePoint" />
            <mxPoint x="360" y="400" as="targetPoint" />
          </mxGeometry>
        </mxCell>
        <mxCell id="480Q1s_5HdtnBdWm07x5-30" value="" style="endArrow=none;html=1;rounded=0;entryX=0;entryY=0.5;entryDx=0;entryDy=0;" edge="1" parent="1" target="480Q1s_5HdtnBdWm07x5-27">
          <mxGeometry width="50" height="50" relative="1" as="geometry">
            <mxPoint x="320" y="780" as="sourcePoint" />
            <mxPoint x="370" y="410" as="targetPoint" />
          </mxGeometry>
        </mxCell>
        <mxCell id="480Q1s_5HdtnBdWm07x5-32" value="Hệ thống" style="shape=umlActor;verticalLabelPosition=bottom;verticalAlign=top;html=1;outlineConnect=0;" vertex="1" parent="1">
          <mxGeometry x="270" y="870" width="30" height="60" as="geometry" />
        </mxCell>
        <mxCell id="480Q1s_5HdtnBdWm07x5-35" value="" style="endArrow=none;html=1;rounded=0;entryX=0;entryY=0.5;entryDx=0;entryDy=0;" edge="1" parent="1" target="480Q1s_5HdtnBdWm07x5-34">
          <mxGeometry width="50" height="50" relative="1" as="geometry">
            <mxPoint x="320" y="930" as="sourcePoint" />
            <mxPoint x="410" y="840" as="targetPoint" />
          </mxGeometry>
        </mxCell>
        <mxCell id="480Q1s_5HdtnBdWm07x5-36" value="Trả sách" style="swimlane;whiteSpace=wrap;html=1;" vertex="1" parent="1">
          <mxGeometry x="360" y="1110" width="370" height="310" as="geometry" />
        </mxCell>
        <mxCell id="480Q1s_5HdtnBdWm07x5-37" value="Trả sách" style="ellipse;whiteSpace=wrap;html=1;" vertex="1" parent="480Q1s_5HdtnBdWm07x5-36">
          <mxGeometry x="40" y="40" width="120" height="60" as="geometry" />
        </mxCell>
        <mxCell id="480Q1s_5HdtnBdWm07x5-39" value="Tính phí phạt" style="ellipse;whiteSpace=wrap;html=1;" vertex="1" parent="480Q1s_5HdtnBdWm07x5-36">
          <mxGeometry x="40" y="220" width="120" height="60" as="geometry" />
        </mxCell>
        <mxCell id="480Q1s_5HdtnBdWm07x5-46" value="Cập nhật trạng thái sách" style="ellipse;whiteSpace=wrap;html=1;" vertex="1" parent="480Q1s_5HdtnBdWm07x5-36">
          <mxGeometry x="40" y="140" width="120" height="60" as="geometry" />
        </mxCell>
        <mxCell id="480Q1s_5HdtnBdWm07x5-40" value="Người đọc" style="shape=umlActor;verticalLabelPosition=bottom;verticalAlign=top;html=1;outlineConnect=0;" vertex="1" parent="1">
          <mxGeometry x="280" y="1170" width="30" height="60" as="geometry" />
        </mxCell>
        <mxCell id="480Q1s_5HdtnBdWm07x5-42" value="" style="endArrow=none;html=1;rounded=0;entryX=0;entryY=0.5;entryDx=0;entryDy=0;" edge="1" parent="1" target="480Q1s_5HdtnBdWm07x5-37">
          <mxGeometry width="50" height="50" relative="1" as="geometry">
            <mxPoint x="320" y="1210" as="sourcePoint" />
            <mxPoint x="370" y="840" as="targetPoint" />
          </mxGeometry>
        </mxCell>
        <mxCell id="480Q1s_5HdtnBdWm07x5-43" value="Hệ thống" style="shape=umlActor;verticalLabelPosition=bottom;verticalAlign=top;html=1;outlineConnect=0;" vertex="1" parent="1">
          <mxGeometry x="270" y="1300" width="30" height="60" as="geometry" />
        </mxCell>
        <mxCell id="480Q1s_5HdtnBdWm07x5-44" value="" style="endArrow=none;html=1;rounded=0;entryX=0;entryY=0.5;entryDx=0;entryDy=0;" edge="1" parent="1" target="480Q1s_5HdtnBdWm07x5-39">
          <mxGeometry width="50" height="50" relative="1" as="geometry">
            <mxPoint x="320" y="1330" as="sourcePoint" />
            <mxPoint x="410" y="1270" as="targetPoint" />
          </mxGeometry>
        </mxCell>
        <mxCell id="480Q1s_5HdtnBdWm07x5-45" value="" style="endArrow=none;html=1;rounded=0;entryX=0;entryY=0.5;entryDx=0;entryDy=0;" edge="1" parent="1" target="480Q1s_5HdtnBdWm07x5-46">
          <mxGeometry width="50" height="50" relative="1" as="geometry">
            <mxPoint x="320" y="1330" as="sourcePoint" />
            <mxPoint x="410" y="1360" as="targetPoint" />
          </mxGeometry>
        </mxCell>
        <mxCell id="480Q1s_5HdtnBdWm07x5-49" value="Đánh giá và xếp hạng" style="swimlane;whiteSpace=wrap;html=1;" vertex="1" parent="1">
          <mxGeometry x="365" y="1480" width="370" height="120" as="geometry" />
        </mxCell>
        <mxCell id="480Q1s_5HdtnBdWm07x5-50" value="Đánh giá sách" style="ellipse;whiteSpace=wrap;html=1;" vertex="1" parent="480Q1s_5HdtnBdWm07x5-49">
          <mxGeometry x="40" y="40" width="120" height="60" as="geometry" />
        </mxCell>
        <mxCell id="480Q1s_5HdtnBdWm07x5-53" value="Người đọc" style="shape=umlActor;verticalLabelPosition=bottom;verticalAlign=top;html=1;outlineConnect=0;" vertex="1" parent="1">
          <mxGeometry x="290" y="1540" width="30" height="60" as="geometry" />
        </mxCell>
        <mxCell id="480Q1s_5HdtnBdWm07x5-54" value="" style="endArrow=none;html=1;rounded=0;entryX=0;entryY=0.5;entryDx=0;entryDy=0;" edge="1" parent="1">
          <mxGeometry width="50" height="50" relative="1" as="geometry">
            <mxPoint x="325" y="1580" as="sourcePoint" />
            <mxPoint x="405" y="1550" as="targetPoint" />
          </mxGeometry>
        </mxCell>
        <mxCell id="480Q1s_5HdtnBdWm07x5-55" value="Kiểm soát truy cập" style="swimlane;whiteSpace=wrap;html=1;" vertex="1" parent="1">
          <mxGeometry x="355" y="1670" width="370" height="310" as="geometry" />
        </mxCell>
        <mxCell id="480Q1s_5HdtnBdWm07x5-56" value="Đăng nhập" style="ellipse;whiteSpace=wrap;html=1;" vertex="1" parent="480Q1s_5HdtnBdWm07x5-55">
          <mxGeometry x="35" y="80" width="120" height="60" as="geometry" />
        </mxCell>
        <mxCell id="480Q1s_5HdtnBdWm07x5-58" value="Đăng xuất" style="ellipse;whiteSpace=wrap;html=1;" vertex="1" parent="480Q1s_5HdtnBdWm07x5-55">
          <mxGeometry x="35" y="220" width="120" height="60" as="geometry" />
        </mxCell>
        <mxCell id="480Q1s_5HdtnBdWm07x5-59" value="Người đọc" style="shape=umlActor;verticalLabelPosition=bottom;verticalAlign=top;html=1;outlineConnect=0;" vertex="1" parent="1">
          <mxGeometry x="260" y="1750" width="30" height="60" as="geometry" />
        </mxCell>
        <mxCell id="480Q1s_5HdtnBdWm07x5-60" value="Thủ thư" style="shape=umlActor;verticalLabelPosition=bottom;verticalAlign=top;html=1;outlineConnect=0;" vertex="1" parent="1">
          <mxGeometry x="260" y="1880" width="30" height="60" as="geometry" />
        </mxCell>
        <mxCell id="480Q1s_5HdtnBdWm07x5-61" value="" style="endArrow=none;html=1;rounded=0;entryX=0.017;entryY=0.617;entryDx=0;entryDy=0;entryPerimeter=0;" edge="1" parent="1" target="480Q1s_5HdtnBdWm07x5-56">
          <mxGeometry width="50" height="50" relative="1" as="geometry">
            <mxPoint x="310" y="1790" as="sourcePoint" />
            <mxPoint x="450" y="1680" as="targetPoint" />
          </mxGeometry>
        </mxCell>
        <mxCell id="480Q1s_5HdtnBdWm07x5-62" value="" style="endArrow=none;html=1;rounded=0;entryX=0;entryY=0.5;entryDx=0;entryDy=0;" edge="1" parent="1" target="480Q1s_5HdtnBdWm07x5-58">
          <mxGeometry width="50" height="50" relative="1" as="geometry">
            <mxPoint x="310" y="1790" as="sourcePoint" />
            <mxPoint x="402" y="1797" as="targetPoint" />
          </mxGeometry>
        </mxCell>
        <mxCell id="480Q1s_5HdtnBdWm07x5-63" value="" style="endArrow=none;html=1;rounded=0;entryX=0;entryY=0.633;entryDx=0;entryDy=0;entryPerimeter=0;" edge="1" parent="1" target="480Q1s_5HdtnBdWm07x5-56">
          <mxGeometry width="50" height="50" relative="1" as="geometry">
            <mxPoint x="310" y="1910" as="sourcePoint" />
            <mxPoint x="412" y="1807" as="targetPoint" />
          </mxGeometry>
        </mxCell>
        <mxCell id="480Q1s_5HdtnBdWm07x5-64" value="" style="endArrow=none;html=1;rounded=0;entryX=0;entryY=0.5;entryDx=0;entryDy=0;" edge="1" parent="1" target="480Q1s_5HdtnBdWm07x5-58">
          <mxGeometry width="50" height="50" relative="1" as="geometry">
            <mxPoint x="310" y="1910" as="sourcePoint" />
            <mxPoint x="422" y="1817" as="targetPoint" />
          </mxGeometry>
        </mxCell>
      </root>
    </mxGraphModel>
  </diagram>
</mxfile>
